<svg width="1600" height="1100" viewBox="0 0 1600 1100" fill="none" xmlns="http://www.w3.org/2000/svg">
  <defs>
    <linearGradient id="bg" x1="120" y1="80" x2="1480" y2="1020" gradientUnits="userSpaceOnUse">
      <stop stop-color="#0B1F3A"/>
      <stop offset="0.52" stop-color="#127A5A"/>
      <stop offset="1" stop-color="#D93A2F"/>
    </linearGradient>
    <linearGradient id="card" x1="0" y1="0" x2="0" y2="1">
      <stop stop-color="#FFFFFF" stop-opacity="0.96"/>
      <stop offset="1" stop-color="#EEF4F8" stop-opacity="0.98"/>
    </linearGradient>
    <filter id="shadow" x="-20%" y="-20%" width="140%" height="140%">
      <feDropShadow dx="0" dy="18" stdDeviation="20" flood-color="#071222" flood-opacity="0.24"/>
    </filter>
  </defs>

  <rect width="1600" height="1100" rx="36" fill="url(#bg)"/>
  <circle cx="1380" cy="170" r="170" fill="#F4C95D" fill-opacity="0.14"/>
  <circle cx="220" cy="950" r="220" fill="#FFFFFF" fill-opacity="0.08"/>
  <circle cx="1510" cy="880" r="120" fill="#0B1F3A" fill-opacity="0.18"/>

  <text x="96" y="104" fill="#FFFFFF" font-family="Segoe UI, Arial, sans-serif" font-size="44" font-weight="700">VB Tippverseny 2026 - UI mintak</text>
  <text x="96" y="142" fill="#DDE7F2" font-family="Segoe UI, Arial, sans-serif" font-size="20">Modern, sportos dashboard + meccstipp + ranglista kiindulopont</text>

  <rect x="78" y="210" width="844" height="790" rx="34" fill="url(#card)" filter="url(#shadow)"/>
  <text x="110" y="255" fill="#0B1F3A" font-family="Segoe UI, Arial, sans-serif" font-size="28" font-weight="700">1. Dashboard / web</text>

  <rect x="110" y="286" width="780" height="74" rx="22" fill="#0B1F3A"/>
  <text x="142" y="332" fill="#FFFFFF" font-family="Segoe UI, Arial, sans-serif" font-size="28" font-weight="700">Tippverseny</text>
  <rect x="618" y="305" width="120" height="38" rx="19" fill="#16385F"/>
  <text x="646" y="330" fill="#CFE2FF" font-family="Segoe UI, Arial, sans-serif" font-size="18">3 liga</text>
  <rect x="754" y="305" width="104" height="38" rx="19" fill="#F4C95D"/>
  <text x="780" y="330" fill="#0B1F3A" font-family="Segoe UI, Arial, sans-serif" font-size="18" font-weight="700">+ Tipp</text>

  <rect x="110" y="390" width="376" height="176" rx="28" fill="#127A5A"/>
  <text x="142" y="434" fill="#EAF8F2" font-family="Segoe UI, Arial, sans-serif" font-size="20">Kovetkezo meccs</text>
  <text x="142" y="478" fill="#FFFFFF" font-family="Segoe UI, Arial, sans-serif" font-size="34" font-weight="700">USA - Paraguay</text>
  <text x="142" y="516" fill="#D4F2E6" font-family="Segoe UI, Arial, sans-serif" font-size="20">2026.06.12 03:00</text>
  <rect x="142" y="530" width="178" height="22" rx="11" fill="#E9FFF6" fill-opacity="0.22"/>
  <rect x="142" y="530" width="126" height="22" rx="11" fill="#F4C95D"/>
  <text x="336" y="546" fill="#EAF8F2" font-family="Segoe UI, Arial, sans-serif" font-size="16">zaras 15 perc mulva</text>

  <rect x="514" y="390" width="376" height="176" rx="28" fill="#F6F8FB"/>
  <text x="546" y="434" fill="#516278" font-family="Segoe UI, Arial, sans-serif" font-size="20">Sajat helyezes</text>
  <text x="546" y="486" fill="#0B1F3A" font-family="Segoe UI, Arial, sans-serif" font-size="52" font-weight="700">2.</text>
  <text x="610" y="486" fill="#0B1F3A" font-family="Segoe UI, Arial, sans-serif" font-size="30" font-weight="700">hely</text>
  <text x="546" y="526" fill="#516278" font-family="Segoe UI, Arial, sans-serif" font-size="20">48 pont • 7 pontos telitalalat</text>
  <rect x="546" y="536" width="140" height="16" rx="8" fill="#E4EAF1"/>
  <rect x="546" y="536" width="96" height="16" rx="8" fill="#D93A2F"/>

  <text x="110" y="630" fill="#0B1F3A" font-family="Segoe UI, Arial, sans-serif" font-size="26" font-weight="700">Kovetkezo merkozesek</text>

  <rect x="110" y="662" width="780" height="92" rx="24" fill="#FFFFFF"/>
  <text x="140" y="702" fill="#0B1F3A" font-family="Segoe UI, Arial, sans-serif" font-size="24" font-weight="700">Brazilia - Marokko</text>
  <text x="140" y="732" fill="#63748B" font-family="Segoe UI, Arial, sans-serif" font-size="18">Mar 13 • Group C • automatikus masolas aktiv</text>
  <rect x="714" y="682" width="64" height="50" rx="16" fill="#F6F8FB"/>
  <text x="739" y="714" fill="#0B1F3A" font-family="Segoe UI, Arial, sans-serif" font-size="24" font-weight="700">2</text>
  <rect x="790" y="682" width="64" height="50" rx="16" fill="#F6F8FB"/>
  <text x="815" y="714" fill="#0B1F3A" font-family="Segoe UI, Arial, sans-serif" font-size="24" font-weight="700">0</text>

  <rect x="110" y="772" width="780" height="92" rx="24" fill="#FFFFFF"/>
  <text x="140" y="812" fill="#0B1F3A" font-family="Segoe UI, Arial, sans-serif" font-size="24" font-weight="700">Nemetorszag - Curacao</text>
  <text x="140" y="842" fill="#63748B" font-family="Segoe UI, Arial, sans-serif" font-size="18">Mar 14 • Group E • override az egyik ligaban</text>
  <rect x="714" y="792" width="64" height="50" rx="16" fill="#F6F8FB"/>
  <text x="739" y="824" fill="#0B1F3A" font-family="Segoe UI, Arial, sans-serif" font-size="24" font-weight="700">3</text>
  <rect x="790" y="792" width="64" height="50" rx="16" fill="#F6F8FB"/>
  <text x="815" y="824" fill="#0B1F3A" font-family="Segoe UI, Arial, sans-serif" font-size="24" font-weight="700">1</text>

  <rect x="986" y="210" width="250" height="790" rx="34" fill="url(#card)" filter="url(#shadow)"/>
  <text x="1018" y="255" fill="#0B1F3A" font-family="Segoe UI, Arial, sans-serif" font-size="28" font-weight="700">2. Mobil tipp</text>
  <rect x="1020" y="286" width="182" height="684" rx="34" fill="#0B1F3A"/>
  <rect x="1084" y="302" width="54" height="8" rx="4" fill="#284A71"/>
  <circle cx="1111" cy="335" r="22" fill="#16385F"/>
  <text x="1103" y="342" fill="#FFFFFF" font-family="Segoe UI, Arial, sans-serif" font-size="16" font-weight="700">A</text>
  <text x="1052" y="390" fill="#CFE2FF" font-family="Segoe UI, Arial, sans-serif" font-size="16">Group A</text>
  <text x="1052" y="432" fill="#FFFFFF" font-family="Segoe UI, Arial, sans-serif" font-size="22" font-weight="700">Mexico - South Africa</text>
  <text x="1052" y="458" fill="#8DB8EA" font-family="Segoe UI, Arial, sans-serif" font-size="14">Lock: 14 perc</text>

  <rect x="1048" y="492" width="56" height="64" rx="18" fill="#F6F8FB"/>
  <rect x="1118" y="492" width="56" height="64" rx="18" fill="#F6F8FB"/>
  <text x="1070" y="533" fill="#0B1F3A" font-family="Segoe UI, Arial, sans-serif" font-size="28" font-weight="700">1</text>
  <text x="1141" y="533" fill="#0B1F3A" font-family="Segoe UI, Arial, sans-serif" font-size="28" font-weight="700">0</text>

  <rect x="1048" y="584" width="126" height="44" rx="22" fill="#127A5A"/>
  <text x="1082" y="612" fill="#FFFFFF" font-family="Segoe UI, Arial, sans-serif" font-size="18" font-weight="700">Mentve</text>

  <rect x="1048" y="652" width="126" height="72" rx="22" fill="#16385F"/>
  <text x="1064" y="684" fill="#FFFFFF" font-family="Segoe UI, Arial, sans-serif" font-size="16" font-weight="700">Auto-copy</text>
  <text x="1064" y="706" fill="#A9C8E9" font-family="Segoe UI, Arial, sans-serif" font-size="12">2 masik ligaba</text>

  <rect x="1048" y="744" width="126" height="96" rx="22" fill="#F6F8FB"/>
  <text x="1062" y="776" fill="#516278" font-family="Segoe UI, Arial, sans-serif" font-size="14">Pontszabaly</text>
  <text x="1062" y="805" fill="#0B1F3A" font-family="Segoe UI, Arial, sans-serif" font-size="14">3 exact</text>
  <text x="1062" y="827" fill="#0B1F3A" font-family="Segoe UI, Arial, sans-serif" font-size="14">2 diff/draw</text>

  <rect x="1272" y="210" width="250" height="790" rx="34" fill="url(#card)" filter="url(#shadow)"/>
  <text x="1304" y="255" fill="#0B1F3A" font-family="Segoe UI, Arial, sans-serif" font-size="28" font-weight="700">3. Ranglista</text>

  <rect x="1304" y="286" width="186" height="92" rx="26" fill="#F4C95D"/>
  <text x="1328" y="326" fill="#0B1F3A" font-family="Segoe UI, Arial, sans-serif" font-size="18">Liga: Baratok 2026</text>
  <text x="1328" y="356" fill="#0B1F3A" font-family="Segoe UI, Arial, sans-serif" font-size="30" font-weight="700">Top 5</text>

  <rect x="1304" y="410" width="186" height="78" rx="22" fill="#FFFFFF"/>
  <text x="1322" y="441" fill="#516278" font-family="Segoe UI, Arial, sans-serif" font-size="14">1</text>
  <text x="1350" y="441" fill="#0B1F3A" font-family="Segoe UI, Arial, sans-serif" font-size="18" font-weight="700">Peter</text>
  <text x="1322" y="468" fill="#516278" font-family="Segoe UI, Arial, sans-serif" font-size="14">55 pont • 8 exact</text>
  <rect x="1430" y="430" width="42" height="12" rx="6" fill="#127A5A"/>
  <rect x="1430" y="450" width="26" height="12" rx="6" fill="#D93A2F"/>

  <rect x="1304" y="504" width="186" height="78" rx="22" fill="#FFFFFF"/>
  <text x="1322" y="535" fill="#516278" font-family="Segoe UI, Arial, sans-serif" font-size="14">2</text>
  <text x="1350" y="535" fill="#0B1F3A" font-family="Segoe UI, Arial, sans-serif" font-size="18" font-weight="700">Akos</text>
  <text x="1322" y="562" fill="#516278" font-family="Segoe UI, Arial, sans-serif" font-size="14">48 pont • 7 exact</text>
  <rect x="1430" y="524" width="36" height="12" rx="6" fill="#127A5A"/>
  <rect x="1430" y="544" width="36" height="12" rx="6" fill="#127A5A"/>

  <rect x="1304" y="598" width="186" height="78" rx="22" fill="#FFFFFF"/>
  <text x="1322" y="629" fill="#516278" font-family="Segoe UI, Arial, sans-serif" font-size="14">3</text>
  <text x="1350" y="629" fill="#0B1F3A" font-family="Segoe UI, Arial, sans-serif" font-size="18" font-weight="700">Geri</text>
  <text x="1322" y="656" fill="#516278" font-family="Segoe UI, Arial, sans-serif" font-size="14">46 pont • 6 exact</text>
  <rect x="1430" y="618" width="24" height="12" rx="6" fill="#D93A2F"/>
  <rect x="1430" y="638" width="38" height="12" rx="6" fill="#127A5A"/>

  <rect x="1304" y="712" width="186" height="226" rx="26" fill="#0B1F3A"/>
  <text x="1328" y="750" fill="#FFFFFF" font-family="Segoe UI, Arial, sans-serif" font-size="18" font-weight="700">Admin gyorsmuveletek</text>
  <rect x="1328" y="772" width="138" height="38" rx="19" fill="#16385F"/>
  <text x="1360" y="797" fill="#CFE2FF" font-family="Segoe UI, Arial, sans-serif" font-size="16">Uj liga</text>
  <rect x="1328" y="822" width="138" height="38" rx="19" fill="#127A5A"/>
  <text x="1350" y="847" fill="#FFFFFF" font-family="Segoe UI, Arial, sans-serif" font-size="16">Meghivok</text>
  <rect x="1328" y="872" width="138" height="38" rx="19" fill="#D93A2F"/>
  <text x="1358" y="897" fill="#FFFFFF" font-family="Segoe UI, Arial, sans-serif" font-size="16">Sync</text>
  <text x="1328" y="930" fill="#9FB8D3" font-family="Segoe UI, Arial, sans-serif" font-size="14">Allapot: API cache rendben</text>
</svg>
